<?xml version="1.0" encoding="UTF-8" standalone="no"?>
<!-- Created with Inkscape (http://www.inkscape.org/) -->

<svg
   width="135mm"
   height="115mm"
   viewBox="0 0 135 115"
   version="1.1"
   id="svg6352"
   inkscape:version="1.2.1 (9c6d41e410, 2022-07-14)"
   sodipodi:docname="Inkscape Illustrations.svg"
   inkscape:export-filename="images/ResistorPackages.png"
   inkscape:export-xdpi="200"
   inkscape:export-ydpi="200"
   xml:space="preserve"
   xmlns:inkscape="http://www.inkscape.org/namespaces/inkscape"
   xmlns:sodipodi="http://sodipodi.sourceforge.net/DTD/sodipodi-0.dtd"
   xmlns:xlink="http://www.w3.org/1999/xlink"
   xmlns="http://www.w3.org/2000/svg"
   xmlns:svg="http://www.w3.org/2000/svg"><sodipodi:namedview
     id="namedview6354"
     pagecolor="#ffffff"
     bordercolor="#999999"
     borderopacity="1"
     inkscape:pageshadow="0"
     inkscape:pageopacity="0"
     inkscape:pagecheckerboard="0"
     inkscape:document-units="mm"
     showgrid="true"
     inkscape:zoom="0.08"
     inkscape:cx="2168.75"
     inkscape:cy="2737.5"
     inkscape:window-width="1920"
     inkscape:window-height="1003"
     inkscape:window-x="0"
     inkscape:window-y="40"
     inkscape:window-maximized="1"
     inkscape:current-layer="layer1"
     inkscape:showpageshadow="2"
     inkscape:deskcolor="#d1d1d1"
     showguides="false"><inkscape:grid
       type="xygrid"
       id="grid12678"
       units="cm"
       spacingx="5"
       spacingy="5" /><sodipodi:guide
       position="662.20249,497.09342"
       orientation="0,-1"
       id="guide28631"
       inkscape:locked="false" /></sodipodi:namedview><defs
     id="defs6349"><linearGradient
       inkscape:collect="always"
       id="linearGradient1136"><stop
         style="stop-color:#ffffff;stop-opacity:1;"
         offset="0"
         id="stop1132" /><stop
         style="stop-color:#8f8f8f;stop-opacity:0"
         offset="1"
         id="stop1134" /></linearGradient><linearGradient
       inkscape:collect="always"
       id="linearGradient1208"><stop
         style="stop-color:#c8c508;stop-opacity:1;"
         offset="0"
         id="stop1204" /><stop
         style="stop-color:#c8c508;stop-opacity:0;"
         offset="1"
         id="stop1206" /></linearGradient><linearGradient
       inkscape:collect="always"
       id="linearGradient1200"><stop
         style="stop-color:#000000;stop-opacity:1;"
         offset="0"
         id="stop1196" /><stop
         style="stop-color:#000000;stop-opacity:0;"
         offset="1"
         id="stop1198" /></linearGradient><linearGradient
       inkscape:collect="always"
       id="linearGradient2627"><stop
         style="stop-color:#644cff;stop-opacity:1;"
         offset="0"
         id="stop2623" /><stop
         style="stop-color:#a597ff;stop-opacity:0"
         offset="1"
         id="stop2625" /></linearGradient><radialGradient
       inkscape:collect="always"
       xlink:href="#linearGradient1208"
       id="radialGradient1210-0-5-9-2"
       cx="115.72039"
       cy="72.547005"
       fx="115.72039"
       fy="72.547005"
       r="14.48759"
       gradientTransform="matrix(0.98619509,0,0,0.86280742,1.5975091,9.9529103)"
       gradientUnits="userSpaceOnUse" /><radialGradient
       inkscape:collect="always"
       xlink:href="#linearGradient1200"
       id="radialGradient1202-8-9-6-1"
       cx="115.72039"
       cy="72.547005"
       fx="115.72039"
       fy="72.547005"
       r="14.28759"
       gradientTransform="matrix(1,0,0,0.86088698,0,10.092233)"
       gradientUnits="userSpaceOnUse" /><linearGradient
       inkscape:collect="always"
       xlink:href="#linearGradient1136"
       id="linearGradient8339"
       gradientUnits="userSpaceOnUse"
       x1="95.72477"
       y1="72.547356"
       x2="101.37811"
       y2="72.374794" /><linearGradient
       inkscape:collect="always"
       xlink:href="#linearGradient1136"
       id="linearGradient8341"
       gradientUnits="userSpaceOnUse"
       gradientTransform="translate(-231.44954)"
       x1="95.72477"
       y1="72.547356"
       x2="101.37811"
       y2="72.374794" /><radialGradient
       inkscape:collect="always"
       xlink:href="#linearGradient2627"
       id="radialGradient2633-6-7-7"
       cx="57.243603"
       cy="79.215065"
       fx="57.243603"
       fy="79.215065"
       r="18.338058"
       gradientTransform="matrix(0.73091662,0,0,2.7021583,250.40689,-105.44548)"
       gradientUnits="userSpaceOnUse" /></defs><g
     inkscape:label="Layer 1"
     inkscape:groupmode="layer"
     id="layer1"
     transform="translate(-1065,-1050)"><rect
       style="fill:#ffffff;fill-opacity:1;stroke:none;stroke-width:1.5;stroke-linecap:square;stroke-dasharray:none;stroke-opacity:1"
       id="rect13747-0-2-1-63-3-2-9-4-8-5-9-3"
       width="135"
       height="115"
       x="1065"
       y="1050"
       inkscape:export-filename="images/CapacitorPackages.png"
       inkscape:export-xdpi="200"
       inkscape:export-ydpi="200" /><g
       id="g1356-7-5-1-6"
       transform="matrix(1.9214089,0,0,1.9207407,785.17015,1082.5278)"
       style="stroke-width:0.848047"><rect
         style="fill:#c3c3c3;fill-opacity:1;stroke:#000000;stroke-width:0.169609;stroke-linecap:square;stroke-linejoin:round;stroke-miterlimit:4;stroke-dasharray:none;stroke-opacity:1"
         id="rect2443-3-6-0-4"
         width="2.9442956"
         height="8.2603464"
         x="152.25491"
         y="27.478872"
         ry="0.13311948" /><rect
         style="fill:#c3c3c3;fill-opacity:1;stroke:#000000;stroke-width:0.169609;stroke-linecap:square;stroke-linejoin:round;stroke-miterlimit:4;stroke-dasharray:none;stroke-opacity:1"
         id="rect2443-3-6-0-4-1"
         width="2.9442956"
         height="8.2603464"
         x="176.06186"
         y="27.478872"
         ry="0.13311948" /><rect
         style="fill:#252525;fill-opacity:1;stroke:none;stroke-width:0.424023;stroke-linecap:square;stroke-linejoin:round;stroke-miterlimit:4;stroke-dasharray:none;stroke-opacity:1"
         id="rect2441-8-0-1-9"
         width="22.133118"
         height="14.554868"
         x="154.56398"
         y="24.331614"
         ry="0.095281221" /><rect
         style="opacity:1;fill:#cecece;fill-opacity:1;stroke:none;stroke-width:0.424022;stroke-linecap:square;stroke-linejoin:round;stroke-miterlimit:4;stroke-dasharray:none;stroke-opacity:1"
         id="rect2465-9-6-1-5"
         width="4.6483026"
         height="14.55487"
         x="155.29843"
         y="24.331614"
         ry="0.095281221" /><text
         xml:space="preserve"
         style="font-weight:bold;font-size:3.89771px;line-height:0.9;font-family:sans-serif;-inkscape-font-specification:'sans-serif Bold';text-align:center;text-anchor:middle;fill:#cecece;fill-opacity:1;stroke:#000000;stroke-width:1.66573;stroke-dasharray:none;stroke-opacity:1"
         x="167.26476"
         y="30.864927"
         id="text9584"
         transform="scale(0.99982613,1.0001739)"><tspan
           sodipodi:role="line"
           id="tspan9582"
           style="font-size:3.89771px;fill:#cecece;fill-opacity:1;stroke:none;stroke-width:1.66573"
           x="167.26476"
           y="30.864927">Tant</tspan><tspan
           sodipodi:role="line"
           style="font-size:3.89771px;fill:#cecece;fill-opacity:1;stroke:none;stroke-width:1.66573"
           x="167.26476"
           y="34.372868"
           id="tspan9586">Cap</tspan></text></g><g
       id="g1291-6-6-6-4"
       transform="matrix(0.99336061,0,0,0.99301516,1052.6252,997.59525)"><rect
         style="fill:#bdbdb2;fill-opacity:1;stroke:#f0f0f0;stroke-width:0.4;stroke-linecap:round;stroke-miterlimit:4;stroke-dasharray:none;stroke-opacity:1"
         id="rect1064-0-4-4-7"
         width="39.600002"
         height="24.6"
         x="95.924767"
         y="60.247356"
         ry="1.3618972" /><rect
         style="fill:url(#linearGradient8339);fill-opacity:1;stroke:none;stroke-width:0.4;stroke-linecap:round;stroke-miterlimit:4;stroke-dasharray:none;stroke-opacity:1"
         id="rect1064-6-6-3-3-6"
         width="39.600002"
         height="24.6"
         x="95.924767"
         y="60.247356"
         ry="1.3618972" /><rect
         style="fill:url(#linearGradient8341);fill-opacity:1;stroke:none;stroke-width:0.4;stroke-linecap:round;stroke-miterlimit:4;stroke-dasharray:none;stroke-opacity:1"
         id="rect1064-6-1-4-5-0-5"
         width="39.600002"
         height="24.6"
         x="-135.52477"
         y="60.247356"
         ry="1.3618972"
         transform="scale(-1,1)" /><rect
         style="fill:#9a9806;fill-opacity:1;stroke:none;stroke-width:0.4;stroke-linecap:round;stroke-linejoin:round;stroke-miterlimit:4;stroke-dasharray:none;stroke-opacity:1"
         id="rect1092-0-4-0-6"
         width="28.57518"
         height="24.6"
         x="101.4328"
         y="60.247002"
         ry="0" /><rect
         style="fill:url(#radialGradient1210-0-5-9-2);fill-opacity:1;stroke:url(#radialGradient1202-8-9-6-1);stroke-width:0.4;stroke-linecap:round;stroke-linejoin:round;stroke-miterlimit:4;stroke-dasharray:none;stroke-opacity:1"
         id="rect1092-8-9-8-2-9"
         width="28.57518"
         height="24.6"
         x="101.4328"
         y="60.247002"
         ry="0" /><rect
         style="fill:none;fill-opacity:1;stroke:#000000;stroke-width:0.4;stroke-linecap:round;stroke-miterlimit:4;stroke-dasharray:none;stroke-opacity:1"
         id="rect1064-7-4-7-5-3"
         width="39.600002"
         height="24.6"
         x="95.924759"
         y="60.247356"
         ry="1.3618972" /></g><g
       id="g12790-5-2"
       transform="matrix(0.69031481,0,0,0.69055495,968.91825,1040.9579)"
       inkscape:export-filename="/home/william/Desktop/Poster.png"
       inkscape:export-xdpi="600"
       inkscape:export-ydpi="600"><ellipse
         style="fill:#1100be;fill-opacity:1;stroke:#000000;stroke-width:0.5;stroke-linecap:round;stroke-miterlimit:4;stroke-dasharray:none"
         id="path837-6-5-5"
         cx="292.26886"
         cy="77.894165"
         rx="18.416849"
         ry="6.1389499" /><path
         style="fill:none;stroke:#000000;stroke-width:0.5;stroke-linecap:square;stroke-miterlimit:4;stroke-dasharray:none"
         id="path837-3-6-3-4"
         sodipodi:type="arc"
         sodipodi:cx="292.26886"
         sodipodi:cy="131.75522"
         sodipodi:rx="18.416849"
         sodipodi:ry="6.1389499"
         sodipodi:start="0"
         sodipodi:end="3.1415927"
         sodipodi:arc-type="arc"
         sodipodi:open="true"
         d="m 310.68571,131.75522 a 18.416849,6.1389499 0 0 1 -9.20843,5.31649 18.416849,6.1389499 0 0 1 -18.41685,-1e-5 18.416849,6.1389499 0 0 1 -9.20842,-5.31648" /><path
         style="fill:none;stroke:#000000;stroke-width:0.5;stroke-linecap:butt;stroke-linejoin:miter;stroke-miterlimit:4;stroke-dasharray:none;stroke-opacity:1"
         d="M 273.74222,77.894225 V 131.47271"
         id="path859-7-8-7" /><path
         style="fill:none;stroke:#000000;stroke-width:0.5;stroke-linecap:butt;stroke-linejoin:miter;stroke-miterlimit:4;stroke-dasharray:none;stroke-opacity:1"
         d="M 310.78391,77.894225 V 131.47271"
         id="path859-6-2-6-4" /><ellipse
         style="fill:#d1d1d1;fill-opacity:1;stroke:#000000;stroke-width:0.396001;stroke-linecap:round;stroke-miterlimit:4;stroke-dasharray:none"
         id="path837-7-7-7-4"
         cx="292.26886"
         cy="77.894165"
         rx="15.969"
         ry="4.4409995" /><path
         style="fill:none;stroke:#aaaaaa;stroke-width:0.467261;stroke-linecap:butt;stroke-linejoin:miter;stroke-miterlimit:4;stroke-dasharray:none;stroke-opacity:1"
         d="M 302.25618,81.356665 282.3272,74.449455"
         id="path921-3-4-3-3" /><path
         style="fill:none;stroke:#aaaaaa;stroke-width:0.467261;stroke-linecap:butt;stroke-linejoin:miter;stroke-miterlimit:4;stroke-dasharray:none;stroke-opacity:1"
         d="m 282.49885,81.406755 19.89361,-6.89467"
         id="path921-3-5-1-6-0" /><path
         style="fill:#1100be;fill-opacity:1;stroke:none;stroke-width:0.499999;stroke-linecap:square;stroke-linejoin:round;stroke-miterlimit:4;stroke-dasharray:none;stroke-opacity:1"
         d="m 274.07073,79.508395 c -0.1524,1.15604 -0.0475,2.3669 -0.0949,3.5424 -0.0673,16.03138 -0.0978,32.063335 -0.0236,48.094685 -0.0795,0.14981 0.11077,0.54557 0.0509,0.42544 -0.0157,1.14639 0.80403,2.07621 1.71418,2.67259 2.68053,1.73996 5.88244,2.42289 8.99099,2.94781 5.79413,0.84607 11.74903,0.73901 17.49029,-0.43478 2.56137,-0.59352 5.23846,-1.30779 7.28871,-3.03735 0.68294,-0.62554 1.2277,-1.51281 1.06608,-2.47161 0.002,-17.21668 0.069,-34.433785 0.003,-51.650225 -0.2565,-0.35387 -0.56027,0.27915 -0.79121,0.41341 -1.9965,1.76985 -4.66358,2.50193 -7.19555,3.11302 -5.87125,1.24871 -11.97201,1.35725 -17.90664,0.5023 -3.26601,-0.55408 -6.67867,-1.24673 -9.42126,-3.22448 -0.41911,-0.22283 -0.66684,-0.64424 -1.01461,-0.92717 -0.055,-0.0237 -0.10428,0.018 -0.15614,0.034 z"
         id="path1240-0-0-7" /><ellipse
         style="fill:none;fill-opacity:1;stroke:#000000;stroke-width:0.396001;stroke-linecap:round;stroke-miterlimit:4;stroke-dasharray:none"
         id="path837-7-9-0-2-8"
         cx="292.26859"
         cy="77.894096"
         rx="15.969"
         ry="4.4409995" /><g
         id="g1062-6-6-6"
         transform="translate(234.50782,29.391104)"><g
           id="g1038-4-9-8"
           transform="translate(-0.52916667,-0.142555)"><path
             style="fill:none;stroke:#000000;stroke-width:0.499999;stroke-linecap:round;stroke-miterlimit:4;stroke-dasharray:none"
             id="path837-3-2-4-3-8"
             sodipodi:type="arc"
             sodipodi:cx="51.095715"
             sodipodi:cy="138.76646"
             sodipodi:rx="1.1181144"
             sodipodi:ry="0.9007467"
             sodipodi:start="0"
             sodipodi:end="3.1415927"
             sodipodi:arc-type="arc"
             sodipodi:open="true"
             d="m 52.213829,138.76646 a 1.1181144,0.9007467 0 0 1 -0.559057,0.78007 1.1181144,0.9007467 0 0 1 -1.118115,0 1.1181144,0.9007467 0 0 1 -0.559057,-0.78007" /><path
             style="fill:none;stroke:#000000;stroke-width:0.499999;stroke-linecap:butt;stroke-linejoin:miter;stroke-miterlimit:4;stroke-dasharray:none;stroke-opacity:1"
             d="m 49.970935,108.23541 v 30.53087"
             id="path859-9-37-0-4" /><path
             style="fill:none;stroke:#000000;stroke-width:0.499999;stroke-linecap:butt;stroke-linejoin:miter;stroke-miterlimit:4;stroke-dasharray:none;stroke-opacity:1"
             d="m 52.219791,108.23541 v 30.53087"
             id="path859-6-1-3-8-3" /></g><g
           id="g1043-4-7-1"
           transform="translate(0.52916667,0.14255524)"><path
             style="fill:none;stroke:#000000;stroke-width:0.499999;stroke-linecap:round;stroke-miterlimit:4;stroke-dasharray:none"
             id="path837-3-2-9-7-6-4"
             sodipodi:type="arc"
             sodipodi:cx="64.415497"
             sodipodi:cy="138.48135"
             sodipodi:rx="1.1181144"
             sodipodi:ry="0.9007467"
             sodipodi:start="0"
             sodipodi:end="3.1415927"
             sodipodi:arc-type="arc"
             sodipodi:open="true"
             d="m 65.533611,138.48135 a 1.1181144,0.9007467 0 0 1 -0.559057,0.78007 1.1181144,0.9007467 0 0 1 -1.118114,0 1.1181144,0.9007467 0 0 1 -0.559058,-0.78007" /><path
             style="fill:none;stroke:#000000;stroke-width:0.499999;stroke-linecap:butt;stroke-linejoin:miter;stroke-miterlimit:4;stroke-dasharray:none;stroke-opacity:1"
             d="m 63.290718,107.9503 v 30.53087"
             id="path859-9-3-2-5-9" /><path
             style="fill:none;stroke:#000000;stroke-width:0.499999;stroke-linecap:butt;stroke-linejoin:miter;stroke-miterlimit:4;stroke-dasharray:none;stroke-opacity:1"
             d="m 65.539574,107.9503 v 30.53087"
             id="path859-6-1-6-1-2-2" /></g></g><path
         style="fill:#bdbdb2;fill-opacity:1;stroke:none;stroke-width:0.4;stroke-linecap:round;stroke-linejoin:round;stroke-miterlimit:4;stroke-dasharray:none;stroke-opacity:1"
         d="m 284.20184,137.54523 c 0.009,9.79131 -0.0207,19.58274 0.0218,29.37397 0.0299,0.45851 -0.0365,0.93889 0.0675,1.38549 0.3827,0.57276 1.43298,0.45277 1.65793,-0.19009 0.008,-10.10711 0.016,-20.21422 0.024,-30.32133 -0.54286,-0.16587 -1.16345,-0.15224 -1.72941,-0.28238 l -0.0366,0.0299 z"
         id="path1232-7-4-0" /><path
         style="fill:#bdbdb2;fill-opacity:1;stroke:none;stroke-width:0.4;stroke-linecap:round;stroke-linejoin:round;stroke-miterlimit:4;stroke-dasharray:none;stroke-opacity:1"
         d="m 300.16395,137.5371 c -0.50723,0.079 -1.02874,0.1531 -1.54337,0.21695 -0.0874,0.30622 -0.0119,0.67624 -0.0395,1.00502 -0.0183,9.81644 0.003,19.63292 0.007,29.44937 0.34063,0.55819 1.25224,0.62779 1.64719,0.0974 0.12756,-0.47764 0.0506,-0.99379 0.0833,-1.4857 0.0343,-9.75822 0.009,-19.5166 0.0167,-29.27488 -0.0399,-0.0702 -0.11452,-0.006 -0.17183,-0.008 z"
         id="path1234-9-0-6" /><path
         style="fill:url(#radialGradient2633-6-7-7);fill-opacity:1;stroke:none;stroke-width:0.499999;stroke-linecap:square;stroke-linejoin:round;stroke-miterlimit:4;stroke-dasharray:none;stroke-opacity:1"
         d="m 274.07073,79.508395 c -0.1524,1.15604 -0.0475,2.3669 -0.0949,3.5424 -0.0673,16.031384 -0.0978,32.063335 -0.0236,48.094685 -0.0795,0.14981 0.11077,0.54557 0.0509,0.42544 -0.0157,1.14639 0.80403,2.07621 1.71418,2.67259 2.68053,1.73996 5.88244,2.42289 8.99099,2.94781 5.79413,0.84607 11.74903,0.73901 17.49029,-0.43478 2.56137,-0.59352 5.23846,-1.30779 7.28871,-3.03735 0.68294,-0.62554 1.2277,-1.51281 1.06608,-2.47161 0.002,-17.21668 0.069,-34.433782 0.003,-51.650225 -0.2565,-0.35387 -0.56027,0.27915 -0.79121,0.41341 -1.9965,1.76985 -4.66358,2.50193 -7.19555,3.11302 -5.87125,1.24871 -11.97201,1.35725 -17.90664,0.5023 -3.26601,-0.55408 -6.67867,-1.24673 -9.42126,-3.22448 -0.41911,-0.22283 -0.66684,-0.64424 -1.01461,-0.92717 -0.055,-0.0237 -0.10428,0.018 -0.15614,0.034 z"
         id="path1240-4-5-0-8" /></g><g
       id="g49725"
       transform="matrix(1.2222854,0,0,1.2209282,-326.33269,-236.6784)"
       style="stroke-width:0.818594"><path
         style="fill:#ffffff;fill-opacity:1;stroke:#000000;stroke-width:2.35755;stroke-dasharray:none;stroke-opacity:1"
         d="m 1163.0829,1105.2995 c 0,-29.7405 0,-29.7405 0,-29.7405"
         id="path9351-8-7" /><path
         style="fill:#ffffff;fill-opacity:1;stroke:#e66c1c;stroke-width:1.84184;stroke-dasharray:none;stroke-opacity:1"
         d="m 1163.0829,1095.2595 c 0,-20 0,-20 0,-20"
         id="path9349" /><circle
         style="fill:#e66c1c;fill-opacity:1;stroke:#000000;stroke-width:0.409297;stroke-dasharray:none;stroke-opacity:1"
         id="path9298"
         cx="1170.5829"
         cy="1072.7595"
         r="12.5" /><path
         style="fill:#ffffff;fill-opacity:1;stroke:#000000;stroke-width:2.35755;stroke-dasharray:none;stroke-opacity:1"
         d="m 1178.0829,1105.2995 c 0,-29.7405 0,-29.7405 0,-29.7405"
         id="path9351-8" /><path
         style="fill:#ffffff;fill-opacity:1;stroke:#e66c1c;stroke-width:1.84184;stroke-dasharray:none;stroke-opacity:1"
         d="m 1178.0829,1095.2595 c 0,-20 0,-20 0,-20"
         id="path9351" /><path
         style="fill:#ffffff;fill-opacity:1;stroke:#a5a5a5;stroke-width:1.84184;stroke-dasharray:none;stroke-opacity:1"
         d="m 1163.0829,1105 c 0,-14.7405 0,-14.7405 0,-14.7405"
         id="path9349-9" /><path
         style="fill:#ffffff;fill-opacity:1;stroke:#a5a5a5;stroke-width:1.84184;stroke-dasharray:none;stroke-opacity:1"
         d="m 1178.0829,1105 c 0,-14.7405 0,-14.7405 0,-14.7405"
         id="path9351-2" /></g></g></svg>
